<svg width="24" height="24" viewBox="0 0 24 24" fill="none" xmlns="http://www.w3.org/2000/svg">
<path d="M13.175 5.17539C12.6918 5.17539 12.2794 5.00459 11.9378 4.66299C11.5962 4.32139 11.4254 3.90879 11.4254 3.42519C11.4254 2.92519 11.5962 2.50439 11.9378 2.16279C12.2794 1.82119 12.6918 1.65039 13.175 1.65039C13.675 1.65039 14.0958 1.82119 14.4374 2.16279C14.7794 2.50439 14.9504 2.92519 14.9504 3.42519C14.9504 3.90879 14.7794 4.32139 14.4374 4.66299C14.0958 5.00459 13.675 5.17539 13.175 5.17539ZM7.1504 22.7506L10.1252 7.42539C10.192 7.05859 10.367 6.77519 10.6502 6.57519C10.9334 6.37519 11.225 6.27519 11.525 6.27519C11.8418 6.27519 12.1378 6.34619 12.413 6.48819C12.6878 6.62979 12.9086 6.83379 13.0754 7.10019L14.075 8.70039C14.3918 9.23359 14.846 9.72119 15.4376 10.1632C16.0292 10.6048 16.7334 10.9422 17.5502 11.1754V9.27519H18.5V22.7506H17.5502V12.4504C16.7002 12.2672 15.8836 11.9338 15.1004 11.4502C14.3168 10.967 13.6084 10.342 12.9752 9.57519L12.1754 13.5256L14.3252 15.5506V22.7506H13.0502V16.7506L10.325 14.4004L8.5004 22.7506H7.1504ZM7.3502 12.7252L8.5502 6.62559L6.1754 6.12519L5 12.3004L7.3502 12.7252Z" fill="#164182"/>
</svg>
