<svg width="44" height="42" viewBox="0 0 44 42" fill="none" xmlns="http://www.w3.org/2000/svg">
<path d="M11 23L16 26L22 23L28 26L33 23L42 41H2L11 23Z" fill="#164182"/>
<path fill-rule="evenodd" clip-rule="evenodd" d="M15 15H22H29L33 23L28 26L22 23L16 26L11 23L15 15Z" fill="white"/>
<path fill-rule="evenodd" clip-rule="evenodd" d="M24 1H20V15H24V8H33L31 4.5L33 1H24Z" fill="#FF4646"/>
<path d="M14.5528 14.7764L10.7943 22.2935L10.5528 22.7764L10.3457 23.1905L1.55279 40.7764L1.19098 41.5H2H42H42.809L42.4472 40.7764L33.6543 23.1905L33.4472 22.7764L33.2057 22.2935L29.4472 14.7764L29.309 14.5H29H24.5V8.5H33H33.8616L33.4341 7.75193L31.5759 4.5L33.4341 1.24807L33.8616 0.5H33H24H20H19.5V1V14.5H15H14.691L14.5528 14.7764Z" stroke="#222222"/>
</svg>
